<svg xmlns="http://www.w3.org/2000/svg" xmlns:xlink="http://www.w3.org/1999/xlink" contentStyleType="text/css" data-diagram-type="CLASS" height="445px" preserveAspectRatio="none" style="width:1307px;height:445px;background:#FFFFFF;" version="1.1" viewBox="0 0 1307 445" width="1307px" zoomAndPan="magnify"><defs/><g><!--cluster MyGame--><g class="cluster" data-entity="MyGame" data-source-line="1" data-uid="ent0003" id="cluster_MyGame"><path d="M8.5,6.602 L71.2818,6.602 A3.75,3.75 0 0 1 73.7818,9.102 L80.7818,31.6699 L1297.5,31.6699 A2.5,2.5 0 0 1 1300,34.1699 L1300,436.102 A2.5,2.5 0 0 1 1297.5,438.602 L8.5,438.602 A2.5,2.5 0 0 1 6,436.102 L6,9.102 A2.5,2.5 0 0 1 8.5,6.602" fill="none" style="stroke:#000000;stroke-width:1.5;"/><line style="stroke:#000000;stroke-width:1.5;" x1="6" x2="80.7818" y1="31.6699" y2="31.6699"/><text fill="#000000" font-family="sans-serif" font-size="14" font-weight="bold" lengthAdjust="spacing" textLength="61.7818" x="10" y="23.5679">MyGame</text></g><!--cluster Interface--><g class="cluster" data-entity="Interface" data-source-line="1" data-uid="ent0004" id="cluster_Interface"><path d="M32.5,52.602 L98.1938,52.602 A3.75,3.75 0 0 1 100.6938,55.102 L107.6938,77.6699 L1273.5,77.6699 A2.5,2.5 0 0 1 1276,80.1699 L1276,412.102 A2.5,2.5 0 0 1 1273.5,414.602 L32.5,414.602 A2.5,2.5 0 0 1 30,412.102 L30,55.102 A2.5,2.5 0 0 1 32.5,52.602" fill="none" style="stroke:#000000;stroke-width:1.5;"/><line style="stroke:#000000;stroke-width:1.5;" x1="30" x2="107.6938" y1="77.6699" y2="77.6699"/><text fill="#000000" font-family="sans-serif" font-size="14" font-weight="bold" lengthAdjust="spacing" textLength="64.6938" x="34" y="69.5679">Interface</text></g><!--class ActiveSkill--><g class="entity" data-entity="ActiveSkill" data-source-line="1" data-uid="ent0002" id="entity_ActiveSkill"><rect fill="#F1F1F1" height="86.1358" rx="2.5" ry="2.5" style="stroke:#181818;stroke-width:0.5;" width="227.6132" x="873" y="312.602"/><ellipse cx="952.1417" cy="328.602" fill="#B4A7E5" rx="11" ry="11" style="stroke:#181818;stroke-width:1;"/><path d="M948.0636,324.3676 L948.0636,322.2114 L955.4542,322.2114 L955.4542,324.3676 L952.9855,324.3676 L952.9855,332.4457 L955.4542,332.4457 L955.4542,334.602 L948.0636,334.602 L948.0636,332.4457 L950.5323,332.4457 L950.5323,324.3676 L948.0636,324.3676 Z " fill="#000000"/><text fill="#000000" font-family="sans-serif" font-size="14" font-style="italic" lengthAdjust="spacing" textLength="60.8298" x="972.6417" y="334.034">ActiveSkill</text><line style="stroke:#181818;stroke-width:0.5;" x1="874" x2="1099.6132" y1="344.602" y2="344.602"/><line style="stroke:#181818;stroke-width:0.5;" x1="874" x2="1099.6132" y1="352.602" y2="352.602"/><polygon fill="#4177AF" points="884,363.6359,880,369.6359,888,369.6359" style="stroke:#1963A0;stroke-width:1;"/><text fill="#000000" font-family="sans-serif" font-size="14" lengthAdjust="spacing" textLength="201.6132" x="893" y="371.5679">void updateSkill(double,World)</text><polygon fill="#4177AF" points="884,382.7039,880,388.7039,888,388.7039" style="stroke:#1963A0;stroke-width:1;"/><text fill="#000000" font-family="sans-serif" font-size="14" lengthAdjust="spacing" textLength="130.9275" x="893" y="390.6358">boolean isFinished()</text></g><!--class Renderable--><g class="entity" data-entity="Renderable" data-source-line="6" data-uid="ent0005" id="entity_Renderable"><rect fill="#F1F1F1" height="67.0679" rx="2.5" ry="2.5" style="stroke:#181818;stroke-width:0.5;" width="544.6002" x="714.5" y="138.102"/><ellipse cx="947.3332" cy="154.102" fill="#B4A7E5" rx="11" ry="11" style="stroke:#181818;stroke-width:1;"/><path d="M943.2551,149.8676 L943.2551,147.7114 L950.6457,147.7114 L950.6457,149.8676 L948.177,149.8676 L948.177,157.9457 L950.6457,157.9457 L950.6457,160.102 L943.2551,160.102 L943.2551,157.9457 L945.7239,157.9457 L945.7239,149.8676 L943.2551,149.8676 Z " fill="#000000"/><text fill="#000000" font-family="sans-serif" font-size="14" font-style="italic" lengthAdjust="spacing" textLength="70.4337" x="967.8332" y="159.534">Renderable</text><line style="stroke:#181818;stroke-width:0.5;" x1="715.5" x2="1258.1002" y1="170.102" y2="170.102"/><line style="stroke:#181818;stroke-width:0.5;" x1="715.5" x2="1258.1002" y1="178.102" y2="178.102"/><polygon fill="#4177AF" points="725.5,189.1359,721.5,195.1359,729.5,195.1359" style="stroke:#1963A0;stroke-width:1;"/><text fill="#000000" font-family="sans-serif" font-size="14" lengthAdjust="spacing" textLength="518.6002" x="734.5" y="197.0679">void draw(GraphicsContext,double,double,double,double,double,GameEngine)</text></g><!--class Collectable--><g class="entity" data-entity="Collectable" data-source-line="10" data-uid="ent0006" id="entity_Collectable"><rect fill="#F1F1F1" height="86.1358" rx="2.5" ry="2.5" style="stroke:#181818;stroke-width:0.5;" width="314.0629" x="365" y="128.602"/><ellipse cx="483.8036" cy="144.602" fill="#B4A7E5" rx="11" ry="11" style="stroke:#181818;stroke-width:1;"/><path d="M479.7255,140.3676 L479.7255,138.2114 L487.1161,138.2114 L487.1161,140.3676 L484.6473,140.3676 L484.6473,148.4457 L487.1161,148.4457 L487.1161,150.602 L479.7255,150.602 L479.7255,148.4457 L482.1942,148.4457 L482.1942,140.3676 L479.7255,140.3676 Z " fill="#000000"/><text fill="#000000" font-family="sans-serif" font-size="14" font-style="italic" lengthAdjust="spacing" textLength="67.9557" x="504.3036" y="150.034">Collectable</text><line style="stroke:#181818;stroke-width:0.5;" x1="366" x2="678.0629" y1="160.602" y2="160.602"/><line style="stroke:#181818;stroke-width:0.5;" x1="366" x2="678.0629" y1="168.602" y2="168.602"/><polygon fill="#4177AF" points="376,179.6359,372,185.6359,380,185.6359" style="stroke:#1963A0;stroke-width:1;"/><text fill="#000000" font-family="sans-serif" font-size="14" lengthAdjust="spacing" textLength="185.1773" x="385" y="187.5679">void onCollect(Player,World)</text><polygon fill="#4177AF" points="376,198.7039,372,204.7039,380,204.7039" style="stroke:#1963A0;stroke-width:1;"/><text fill="#000000" font-family="sans-serif" font-size="14" lengthAdjust="spacing" textLength="288.0629" x="385" y="206.6358">void updateCollectible(Player,World,double)</text></g><!--class Item--><g class="entity" data-entity="Item" data-source-line="15" data-uid="ent0007" id="entity_Item"><rect fill="#F1F1F1" height="162.4075" rx="2.5" ry="2.5" style="stroke:#181818;stroke-width:0.5;" width="283.207" x="46.5" y="90.602"/><ellipse cx="169.6436" cy="106.602" fill="#B4A7E5" rx="11" ry="11" style="stroke:#181818;stroke-width:1;"/><path d="M165.5654,102.3676 L165.5654,100.2114 L172.9561,100.2114 L172.9561,102.3676 L170.4873,102.3676 L170.4873,110.4457 L172.9561,110.4457 L172.9561,112.602 L165.5654,112.602 L165.5654,110.4457 L168.0342,110.4457 L168.0342,102.3676 L165.5654,102.3676 Z " fill="#000000"/><text fill="#000000" font-family="sans-serif" font-size="14" font-style="italic" lengthAdjust="spacing" textLength="28.4199" x="190.1436" y="112.034">Item</text><line style="stroke:#181818;stroke-width:0.5;" x1="47.5" x2="328.707" y1="122.602" y2="122.602"/><line style="stroke:#181818;stroke-width:0.5;" x1="47.5" x2="328.707" y1="130.602" y2="130.602"/><polygon fill="#4177AF" points="57.5,141.6359,53.5,147.6359,61.5,147.6359" style="stroke:#1963A0;stroke-width:1;"/><text fill="#000000" font-family="sans-serif" font-size="14" lengthAdjust="spacing" textLength="112.4756" x="66.5" y="149.5679">String getName()</text><polygon fill="#4177AF" points="57.5,160.7039,53.5,166.7039,61.5,166.7039" style="stroke:#1963A0;stroke-width:1;"/><text fill="#000000" font-family="sans-serif" font-size="14" lengthAdjust="spacing" textLength="148.3294" x="66.5" y="168.6358">String getDescription()</text><polygon fill="#4177AF" points="57.5,179.7718,53.5,185.7718,61.5,185.7718" style="stroke:#1963A0;stroke-width:1;"/><text fill="#000000" font-family="sans-serif" font-size="14" lengthAdjust="spacing" textLength="142.5474" x="66.5" y="187.7038">void applyBuff(World)</text><polygon fill="#4177AF" points="57.5,198.8397,53.5,204.8397,61.5,204.8397" style="stroke:#1963A0;stroke-width:1;"/><text fill="#000000" font-family="sans-serif" font-size="14" lengthAdjust="spacing" textLength="257.207" x="66.5" y="206.7717">void updateEffect(double,World,Player)</text><polygon fill="#4177AF" points="57.5,217.9076,53.5,223.9076,61.5,223.9076" style="stroke:#1963A0;stroke-width:1;"/><text fill="#000000" font-family="sans-serif" font-size="14" lengthAdjust="spacing" textLength="171.4714" x="66.5" y="225.8396">ItemRarity getItemRarity()</text><polygon fill="#4177AF" points="57.5,236.9755,53.5,242.9755,61.5,242.9755" style="stroke:#1963A0;stroke-width:1;"/><text fill="#000000" font-family="sans-serif" font-size="14" lengthAdjust="spacing" textLength="197.3713" x="66.5" y="244.9075">void setItemRarity(ItemRarity)</text></g><!--SRC=[XPBDRW8X58NtF0LB9XbzWcwijSP5cqONNIDSnXiH233QIN-UlQ3JuYJjk09E3kSxDu0cWbTS07tgblm0qzMFC9s9Y4VOx55h-aw-wD6YfAsJF5v49csxrL2_MgzbbGnRQpLmGp4yei6m0yagyaa8_izOWv7WUOef2EdvYIqzTpiKOMwJzotMFMjioT4Bqw21MzIvrHf476AjwMNseda7linrDNXlmNHpOEixt0Al8XpEn4tqQ1hQG7nE3bODf0S8mgEBQ0txvNFdT7VVAiN-whLGAZU_Vf7wqYyRCtRDFSOknvTJIGy3kMpF0n4ozcvt7vF9wEVv1W00]--></g></svg>